<?xml version="1.0" standalone="no"?>
<!DOCTYPE svg PUBLIC "-//W3C//DTD SVG 20010904//EN"
 "http://www.w3.org/TR/2001/REC-SVG-20010904/DTD/svg10.dtd">
<svg version="1.0" xmlns="http://www.w3.org/2000/svg"
 width="121.000000pt" height="137.000000pt" viewBox="0 0 121.000000 137.000000"
 preserveAspectRatio="xMidYMid meet">

<g transform="translate(0.000000,137.000000) scale(0.100000,-0.100000)"
fill="#000000" stroke="none">
<path d="M311 1191 c-168 -98 -279 -169 -287 -183 -16 -28 -20 -631 -5 -671 7
-17 83 -66 280 -180 248 -144 274 -157 318 -156 43 0 74 15 318 157 l270 157
3 335 c1 184 0 345 -3 357 -7 29 -548 343 -591 343 -19 0 -122 -54 -303 -159z
m405 -102 c196 -60 320 -343 235 -535 l-20 -45 34 -15 c19 -8 35 -18 35 -22 0
-10 -160 -212 -182 -230 -14 -11 -21 -5 -53 47 -36 58 -37 59 -68 50 -50 -14
-110 -11 -181 11 -51 16 -79 33 -125 76 -72 66 -108 135 -117 221 -5 47 -11
64 -24 68 -24 8 -31 39 -20 97 13 66 34 108 80 161 109 123 251 164 406 116z"/>
<path d="M566 798 c-19 -19 -55 -40 -82 -49 -46 -14 -49 -17 -52 -51 -5 -53
29 -112 81 -143 65 -38 103 -34 145 16 20 23 40 38 48 35 17 -7 34 24 34 61 0
32 -40 122 -62 140 -8 7 -29 16 -46 19 -27 5 -37 1 -66 -28z"/>
</g>
</svg>
