<?xml version="1.0" encoding="UTF-8"?>
<svg version="1.1" xmlns="http://www.w3.org/2000/svg" width="330" height="137">
<path d="M0 0 C3.1440832 1.74047463 6.22550593 3.5610482 9.30078125 5.42041016 C11.02000024 6.43888792 12.73922787 7.45735155 14.45906067 8.47479248 C16.22951157 9.52444666 17.99635465 10.58000549 19.76318359 11.63574219 C23.20758889 13.68673706 26.68154808 15.68086412 30.1640625 17.66650391 C31.79118164 18.59813354 31.79118164 18.59813354 33.45117188 19.54858398 C35.51368919 20.72873499 37.57868716 21.90456426 39.64648438 23.07543945 C51.30062648 29.80431912 51.30062648 29.80431912 52.90911865 34.51420593 C53.38919752 37.23377382 53.4437043 39.82108036 53.46191406 42.58374023 C53.47152161 43.76208939 53.48112915 44.94043854 53.49102783 46.15449524 C53.49527771 47.42431747 53.49952759 48.69413971 53.50390625 50.00244141 C53.50960632 51.3119426 53.5153064 52.62144379 53.5211792 53.97062683 C53.53166971 56.74205919 53.53752496 59.51346271 53.54101562 62.28491211 C53.54649328 65.82216162 53.57051345 69.35902485 53.59898758 72.89615345 C53.62218355 76.28574155 53.62406813 79.6752781 53.62890625 83.06494141 C53.64125305 84.32869095 53.65359985 85.59244049 53.6663208 86.89448547 C53.65030537 93.23323524 53.60110225 98.22499082 50.30078125 103.73291016 C47.91746884 105.53617302 45.84746131 106.86106372 43.23828125 108.23291016 C41.71582058 109.07998208 40.1937092 109.92768198 38.671875 110.77587891 C37.82737793 111.23784668 36.98288086 111.69981445 36.11279297 112.17578125 C30.62688335 115.21355965 25.22361329 118.3968917 19.80078125 121.54541016 C16.59220297 123.40029216 13.38244196 125.25110152 10.15625 127.07519531 C8.39839849 128.09569906 6.66423548 129.16017144 4.9765625 130.29296875 C-1.34039142 134.38489359 -7.30072899 134.951021 -14.69921875 133.73291016 C-18.89316342 132.20379543 -22.53650657 130.07786281 -26.32421875 127.73291016 C-27.3716626 127.11440186 -28.41910645 126.49589355 -29.49829102 125.85864258 C-31.7342228 124.53471605 -33.96300872 123.19865817 -36.18505859 121.8515625 C-39.84517688 119.63385155 -43.54528591 117.48828935 -47.25 115.34619141 C-49.71353593 113.91481788 -52.17522598 112.48029347 -54.63671875 111.04541016 C-55.52789398 110.52781128 -55.52789398 110.52781128 -56.43707275 109.99975586 C-58.12113288 109.01829047 -59.79899647 108.02621598 -61.4765625 107.03369141 C-62.43812256 106.4681958 -63.39968262 105.9027002 -64.39038086 105.32006836 C-66.69921875 103.73291016 -66.69921875 103.73291016 -68.69921875 100.73291016 C-68.97337341 97.82424927 -68.97337341 97.82424927 -69.00561523 94.22949219 C-69.01393875 93.57384277 -69.02226227 92.91819336 -69.03083801 92.24267578 C-69.0549323 90.07529765 -69.0637093 87.90822051 -69.0703125 85.74072266 C-69.07927949 84.23241079 -69.08840135 82.72409983 -69.09767151 81.21578979 C-69.11416262 78.05334309 -69.12186178 74.89100226 -69.12475586 71.72851562 C-69.1301391 67.68072627 -69.1678145 63.63393519 -69.21350002 59.58642769 C-69.24327803 56.47053414 -69.25047956 53.35488074 -69.25148201 50.23885727 C-69.25568313 48.74692082 -69.26811336 47.25498357 -69.28899956 45.76318741 C-69.31593219 43.67308942 -69.31108639 41.58530149 -69.29858398 39.49511719 C-69.30365463 38.30725616 -69.30872528 37.11939514 -69.31394958 35.89553833 C-68.51754795 31.79826176 -66.86383233 30.36333679 -63.69921875 27.73291016 C-60.91040039 25.90283203 -60.91040039 25.90283203 -57.859375 24.20166016 C-56.72363037 23.56172119 -55.58788574 22.92178223 -54.41772461 22.26245117 C-53.19908657 21.58588241 -51.98041731 20.90936989 -50.76171875 20.23291016 C-48.24149576 18.81847533 -45.72438502 17.39853732 -43.20703125 15.97900391 C-42.57592941 15.62418442 -41.94482758 15.26936493 -41.29460144 14.90379333 C-34.24684275 10.93360709 -27.30010102 6.79542016 -20.36547852 2.63134766 C-19.52557373 2.12990234 -18.68566895 1.62845703 -17.8203125 1.11181641 C-17.09255615 0.67426025 -16.3647998 0.2367041 -15.61499023 -0.21411133 C-10.21238237 -3.18358345 -5.39426752 -2.53222218 0 0 Z M-41.15625 39.45947266 C-45.17472704 45.38036794 -47.74395013 52.56903782 -46.69921875 59.73291016 C-45.46835833 61.71760396 -45.46835833 61.71760396 -43.69921875 62.73291016 C-43.03921875 62.73291016 -42.37921875 62.73291016 -41.69921875 62.73291016 C-41.745625 63.33876953 -41.79203125 63.94462891 -41.83984375 64.56884766 C-42.25246339 74.14751787 -39.68768015 80.77259246 -33.44921875 88.04541016 C-28.00270684 93.74233641 -22.40875993 97.79430609 -14.69921875 99.73291016 C-12.35794633 99.72868546 -10.05299754 99.5684111 -7.71801758 99.40087891 C3.08010508 98.68079474 3.08010508 98.68079474 6.875 101.95166016 C8.36542261 104.52110543 9.46244634 106.88765229 10.30078125 109.73291016 C15.63895194 105.45160302 19.71233182 100.99901653 23.73828125 95.48291016 C24.27904297 94.76361328 24.81980469 94.04431641 25.37695312 93.30322266 C28.26515468 89.86151766 28.26515468 89.86151766 29.30078125 85.73291016 C26.99078125 85.07291016 24.68078125 84.41291016 22.30078125 83.73291016 C22.57792969 83.20181641 22.85507813 82.67072266 23.140625 82.12353516 C23.50285156 81.41712891 23.86507812 80.71072266 24.23828125 79.98291016 C24.59792969 79.28681641 24.95757812 78.59072266 25.328125 77.87353516 C29.04986922 69.68270853 28.29600055 58.84776735 25.73828125 50.42041016 C21.92100323 40.45530544 15.35731825 31.56230302 5.875 26.41650391 C-11.99145257 18.81995296 -29.22572014 25.20835918 -41.15625 39.45947266 Z " fill="#6B0CF7" transform="translate(68.69921875,3.26708984375)"/>
<path d="M0 0 C4.24299297 3.75509234 7.76466577 8.16227124 8.24291992 13.92919922 C8.23881104 15.04311035 8.23470215 16.15702148 8.23046875 17.3046875 C8.22853516 18.52800781 8.22660156 19.75132813 8.22460938 21.01171875 C8.20624023 22.92404297 8.20624023 22.92404297 8.1875 24.875 C8.18685547 26.14214844 8.18621094 27.40929687 8.18554688 28.71484375 C8.14077116 38.1774454 8.14077116 38.1774454 7.42700195 42.34814453 C7.28609131 43.22325684 7.14518066 44.09836914 7 45 C7.33 45.33 7.66 45.66 8 46 C8.04092937 48.33297433 8.04241723 50.66705225 8 53 C3.39726126 53.88514207 1.10896442 54.12532642 -3 52 C-3.57878906 52.30292969 -4.15757812 52.60585937 -4.75390625 52.91796875 C-9.68337567 55.29268706 -16.16711827 54.78586586 -21.3515625 53.34765625 C-27.08109051 50.77047473 -31.40677771 46.42865868 -34.0534668 40.73291016 C-35.73479705 35.87843224 -35.41077832 30.90446423 -35.4375 25.8125 C-35.47037109 24.72646484 -35.50324219 23.64042969 -35.53710938 22.52148438 C-35.58715878 14.94582435 -34.34532082 9.29139886 -30 3 C-27.68359375 0.74609375 -27.68359375 0.74609375 -25.4375 -0.5625 C-24.69371094 -1.01753906 -23.94992188 -1.47257812 -23.18359375 -1.94140625 C-15.28723325 -5.76951662 -7.41382328 -4.18935978 0 0 Z M-23.12109375 10.92578125 C-25.92747835 15.51751656 -25.54451355 19.72526778 -25.4375 25 C-25.44458984 25.98484375 -25.45167969 26.9696875 -25.45898438 27.984375 C-25.40336415 34.31652384 -24.68343387 38.00693915 -20.375 42.8125 C-16.69666095 44.65166953 -13.03765305 44.23294152 -9 44 C-9.95729916 42.87411986 -10.91587895 41.7493285 -11.875 40.625 C-12.40867188 39.99851563 -12.94234375 39.37203125 -13.4921875 38.7265625 C-14.61432007 37.44163349 -15.79371975 36.20628025 -17 35 C-17.1875 32.4375 -17.1875 32.4375 -17 30 C-16 29 -16 29 -13.375 28.5 C-8.40274317 29.23663064 -6.18570055 32.30534137 -3 36 C-0.34852936 33.34852936 -0.71062703 31.33096112 -0.67773438 27.71875 C-0.68256836 26.49671875 -0.68256836 26.49671875 -0.6875 25.25 C-0.67138672 24.45078125 -0.65527344 23.6515625 -0.63867188 22.828125 C-0.63454287 17.80725887 -1.20567731 14.33647248 -4 10 C-7.06892837 7.40846049 -9.07639219 6.13194397 -13.0625 5.5625 C-17.4628829 6.21787618 -19.8726945 7.97649795 -23.12109375 10.92578125 Z " fill="#5C5C5C" transform="translate(171,45)"/>
<path d="M0 0 C2.375 0.6875 2.375 0.6875 3.375 1.6875 C3.61178716 4.37985776 3.79698025 7.05248156 3.9375 9.75 C3.98068359 10.50861328 4.02386719 11.26722656 4.06835938 12.04882812 C4.17473633 13.92815438 4.27539934 15.80780244 4.375 17.6875 C5.06980469 17.36652344 5.76460937 17.04554687 6.48046875 16.71484375 C12.22199818 14.67702696 19.12576421 14.45115556 24.859375 16.6328125 C30.11048952 19.77163659 34.03814667 23.99264734 36.375 29.6875 C37.25333344 36.46924765 37.51101088 42.8953075 33.75 48.8125 C30.27638987 53.23047222 26.74824018 55.89641994 21.375 57.6875 C15.13134501 58.07491294 9.19185533 58.27276903 3.375 55.6875 C2.715 56.3475 2.055 57.0075 1.375 57.6875 C-1.125 57.9375 -1.125 57.9375 -3.625 57.6875 C-6.19839437 55.11410563 -5.88229049 54.11180389 -5.8996582 50.53515625 C-5.90919022 49.46064209 -5.91872223 48.38612793 -5.92854309 47.27905273 C-5.92763168 46.11446533 -5.92672028 44.94987793 -5.92578125 43.75 C-5.93006638 42.55898682 -5.9343515 41.36797363 -5.93876648 40.14086914 C-5.94451775 37.61898434 -5.94500421 35.09708295 -5.94067383 32.57519531 C-5.93751305 28.7034902 -5.96096716 24.83254808 -5.98632812 20.9609375 C-5.98860083 18.51562597 -5.98930475 16.07031237 -5.98828125 13.625 C-5.997491 12.4604126 -6.00670074 11.2958252 -6.01618958 10.09594727 C-6.00996078 9.02143311 -6.00373199 7.94691895 -5.99731445 6.83984375 C-5.99794388 5.89101318 -5.9985733 4.94218262 -5.9992218 3.96459961 C-5.87572861 3.21315674 -5.75223541 2.46171387 -5.625 1.6875 C-2.625 -0.3125 -2.625 -0.3125 0 0 Z M9.75 26.5 C8.86441406 27.00466797 8.86441406 27.00466797 7.9609375 27.51953125 C5.67635358 29.2020204 4.5093645 30.94495937 4.00390625 33.73828125 C3.87884542 37.99770603 3.97799802 40.81040024 6.75 44.1875 C10.5808582 47.83593638 12.98130094 48.08860481 18.1171875 48.0390625 C22.50296415 47.3561561 24.28922136 44.16810723 26.75 40.8125 C27.72986729 37.4809512 27.19605642 35.03037257 26.375 31.6875 C23.94128535 27.77617288 21.82598237 25.91152015 17.375 24.6875 C13.62165834 24.6875 12.7441612 24.73911665 9.75 26.5 Z " fill="#5F5F5F" transform="translate(234.625,41.3125)"/>
<path d="M0 0 C2.375 0.6875 2.375 0.6875 3.375 1.6875 C3.53517166 4.49726518 3.63450534 7.28523596 3.69140625 10.09765625 C3.71218735 10.93969101 3.73296844 11.78172577 3.75437927 12.64927673 C3.81996812 15.34943179 3.87880276 18.04968717 3.9375 20.75 C3.98067637 22.57618241 4.02429036 24.40235454 4.06835938 26.22851562 C4.17565894 30.71473992 4.27689966 35.2010655 4.375 39.6875 C5.06126465 38.99599854 5.7475293 38.30449707 6.45458984 37.59204102 C8.99779269 35.03075826 11.54428709 32.47276991 14.09179688 29.91577148 C15.19458861 28.8079464 16.29648176 27.69922607 17.39746094 26.58959961 C18.97877221 24.9961792 20.56327124 23.40599052 22.1484375 21.81640625 C22.64121185 21.31847061 23.13398621 20.82053497 23.64169312 20.30751038 C28.21354709 15.73490624 28.21354709 15.73490624 32.4375 15.5625 C35.375 15.6875 35.375 15.6875 36.375 16.6875 C36.875 19.25 36.875 19.25 36.375 22.6875 C34.32894997 25.63842286 31.90186608 28.14497153 29.375 30.6875 C28.85421875 31.22246094 28.3334375 31.75742188 27.796875 32.30859375 C26.67150224 33.45013566 25.52578823 34.57158414 24.375 35.6875 C26.35411113 40.62390363 30.39452644 43.56350264 34.2578125 47.0546875 C36.375 49.6875 36.375 49.6875 36.8046875 52.8828125 C36.375 55.6875 36.375 55.6875 34.375 57.6875 C32.17578125 58.21875 32.17578125 58.21875 29.375 57.6875 C26.83918764 55.77172236 24.72579251 53.50755283 22.5625 51.1875 C21.96501953 50.56746094 21.36753906 49.94742188 20.75195312 49.30859375 C19.28142559 47.77924512 17.8266427 46.23478534 16.375 44.6875 C14.89 45.9559375 14.89 45.9559375 13.375 47.25 C12.41980469 48.06017578 12.41980469 48.06017578 11.4453125 48.88671875 C10.03900117 50.10994427 8.65917465 51.36415755 7.3046875 52.64453125 C6.62664062 53.27746094 5.94859375 53.91039062 5.25 54.5625 C4.62867188 55.15804687 4.00734375 55.75359375 3.3671875 56.3671875 C0.8398279 58.04218269 -0.64850686 58.08761875 -3.625 57.6875 C-6.19839437 55.11410563 -5.88229049 54.11180389 -5.8996582 50.53515625 C-5.90919022 49.46064209 -5.91872223 48.38612793 -5.92854309 47.27905273 C-5.92763168 46.11446533 -5.92672028 44.94987793 -5.92578125 43.75 C-5.93006638 42.55898682 -5.9343515 41.36797363 -5.93876648 40.14086914 C-5.94451775 37.61898434 -5.94500421 35.09708295 -5.94067383 32.57519531 C-5.93751305 28.7034902 -5.96096716 24.83254808 -5.98632812 20.9609375 C-5.98860083 18.51562597 -5.98930475 16.07031237 -5.98828125 13.625 C-5.997491 12.4604126 -6.00670074 11.2958252 -6.01618958 10.09594727 C-6.00996078 9.02143311 -6.00373199 7.94691895 -5.99731445 6.83984375 C-5.99794388 5.89101318 -5.9985733 4.94218262 -5.9992218 3.96459961 C-5.87572861 3.21315674 -5.75223541 2.46171387 -5.625 1.6875 C-2.625 -0.3125 -2.625 -0.3125 0 0 Z " fill="#595959" transform="translate(293.625,41.3125)"/>
<path d="M0 0 C1.11375 0.556875 1.11375 0.556875 2.25 1.125 C2.26458252 1.69420166 2.27916504 2.26340332 2.29418945 2.84985352 C2.36929165 5.46303828 2.46574189 8.07503099 2.5625 10.6875 C2.58505859 11.58275391 2.60761719 12.47800781 2.63085938 13.40039062 C2.88743018 19.76801154 3.64482052 25.01882447 7.875 30.0625 C11.64240351 31.74791736 15.20753125 31.91043511 19.25 31.125 C22.53175318 28.59531526 23.94243777 27.04768669 25.25 23.125 C25.38573985 21.52253513 25.47406233 19.91578028 25.53125 18.30859375 C25.56863281 17.37982422 25.60601562 16.45105469 25.64453125 15.49414062 C25.7149841 13.53581234 25.78529604 11.57747897 25.85546875 9.61914062 C25.89285156 8.69166016 25.93023437 7.76417969 25.96875 6.80859375 C25.99904297 5.95837646 26.02933594 5.10815918 26.06054688 4.23217773 C26.25 2.125 26.25 2.125 27.25 0.125 C29.72718997 -0.90004413 30.88120395 -1.00144436 33.4375 -0.125 C35.25 1.125 35.25 1.125 36.25 4.125 C37.32226107 27.71474359 37.32226107 27.71474359 30.25 36.125 C24.13684641 41.27512255 19.31654634 42.50058144 11.32421875 42.39453125 C5.85729565 41.91522033 2.1843017 40.22860601 -1.53515625 36.18359375 C-5.46733809 31.13589933 -6.87918876 27.60869553 -6.84765625 21.14453125 C-6.84443359 19.98115234 -6.84121094 18.81777344 -6.83789062 17.61914062 C-6.82951172 16.40419922 -6.82113281 15.18925781 -6.8125 13.9375 C-6.80798828 12.71095703 -6.80347656 11.48441406 -6.79882812 10.22070312 C-6.78703065 7.18875332 -6.77056921 4.15690094 -6.75 1.125 C-3.09375 -0.984375 -3.09375 -0.984375 0 0 Z " fill="#636363" transform="translate(189.75,56.875)"/>
<path d="M0 0 C1.796875 2.140625 1.796875 2.140625 3 4 C1.66666667 5.33333333 0.33333333 6.66666667 -1 8 C-1.36442233 9.66014616 -1.69972883 11.32706064 -2 13 C-4.24609375 11.09570312 -4.24609375 11.09570312 -6.4921875 9.19140625 C-9.20892568 7.0447608 -10.91782091 6.83999162 -14.3125 7.0625 C-15.45138672 7.11083984 -15.45138672 7.11083984 -16.61328125 7.16015625 C-20.28241005 8.45125722 -22.31795973 10.58874385 -24 14 C-24.66388649 17.70978158 -24.60914187 21.30454696 -24.5 25.0625 C-24.50257813 26.04283203 -24.50515625 27.02316406 -24.5078125 28.03320312 C-24.42234544 34.32785194 -23.69814376 38.10199374 -19.3125 42.8125 C-18.879375 43.204375 -18.44625 43.59625 -18 44 C-18.61875 44.226875 -19.2375 44.45375 -19.875 44.6875 C-22.61410209 46.37929835 -23.05024472 47.99244161 -24 51 C-28.8756971 49.19418626 -31.9221939 45.24985299 -34.12524414 40.65112305 C-35.71979799 35.81850786 -35.41101696 30.85898952 -35.4375 25.8125 C-35.47037109 24.72646484 -35.50324219 23.64042969 -35.53710938 22.52148438 C-35.58715878 14.94582435 -34.34532082 9.29139886 -30 3 C-27.68359375 0.74609375 -27.68359375 0.74609375 -25.4375 -0.5625 C-24.69371094 -1.01753906 -23.94992188 -1.47257812 -23.18359375 -1.94140625 C-15.33748669 -5.74515404 -7.38234446 -4.1816077 0 0 Z " fill="#646464" transform="translate(171,45)"/>
<path d="M0 0 C4.06720197 0.28340202 6.20003803 1.52254129 9 4.5625 C12.57731289 10.05623051 13.70843567 16.16200877 12.375 22.5625 C11 24.5625 11 24.5625 8.6875 25 C5.64015523 25.31784441 5.64015523 25.31784441 3.8125 28.6875 C2.14477957 30.8707933 1.46428858 31.49210531 -1.29296875 31.91015625 C-7.24868363 31.54073974 -11.88750011 29.96952906 -16 25.5625 C-19.76334748 20.3362489 -20.45230908 15.89482719 -20 9.5625 C-19.26394531 9.33175781 -18.52789062 9.10101563 -17.76953125 8.86328125 C-11.45917056 6.83040232 -11.45917056 6.83040232 -6.3125 2.8125 C-3.81356186 0.38110073 -3.30693368 0.16565345 0 0 Z " fill="#6C0EF6" transform="translate(61,53.4375)"/>
<path d="M0 0 C1 1 1 1 1.5 3.5625 C0.74701214 8.73929151 -2.40371726 11.38142625 -6 15 C-6.52078125 15.53496094 -7.0415625 16.06992188 -7.578125 16.62109375 C-8.70349776 17.76263566 -9.84921177 18.88408414 -11 20 C-9.02088887 24.93640363 -4.98047356 27.87600264 -1.1171875 31.3671875 C1 34 1 34 1.4296875 37.1953125 C1 40 1 40 -1 42 C-3.20703125 42.53125 -3.20703125 42.53125 -6 42 C-8.49107722 40.07990611 -10.56460244 37.81282837 -12.6875 35.5 C-13.83284153 34.27711593 -14.98237813 33.05814302 -16.13671875 31.84375 C-16.63905029 31.29912109 -17.14138184 30.75449219 -17.65893555 30.19335938 C-18.94982482 28.77841036 -18.94982482 28.77841036 -21 29 C-21 28.01 -21 27.02 -21 26 C-24.63 26 -28.26 26 -32 26 C-27.20622569 20.23200704 -22.06439896 14.91368413 -16.75 9.625 C-15.9353125 8.80644531 -15.120625 7.98789063 -14.28125 7.14453125 C-13.50265625 6.36722656 -12.7240625 5.58992188 -11.921875 4.7890625 C-11.21643555 4.08475098 -10.51099609 3.38043945 -9.78417969 2.65478516 C-6.59434266 -0.30371448 -4.25872007 -0.18122213 0 0 Z " fill="#686868" transform="translate(329,57)"/>
<path d="M0 0 C1.11375 0.556875 1.11375 0.556875 2.25 1.125 C2.2993521 6.64256476 2.33569662 12.16000171 2.35986328 17.67773438 C2.36993534 19.55568682 2.38359362 21.43362353 2.40087891 23.31152344 C2.42507453 26.0072009 2.43647083 28.70267146 2.4453125 31.3984375 C2.45563507 32.24119232 2.46595764 33.08394714 2.47659302 33.95223999 C2.47699144 36.01121247 2.37257588 38.06967935 2.25 40.125 C0.25 42.125 0.25 42.125 -2.25 42.375 C-4.75 42.125 -4.75 42.125 -6.75 40.125 C-6.92539436 37.18403263 -6.98132375 34.33846651 -6.9453125 31.3984375 C-6.9424826 30.53562164 -6.93965271 29.67280579 -6.93673706 28.78384399 C-6.92552333 26.0224228 -6.90041684 23.2613235 -6.875 20.5 C-6.86497173 18.63021301 -6.85584562 16.76042095 -6.84765625 14.890625 C-6.82558012 10.30195891 -6.79104234 5.71353407 -6.75 1.125 C-4.02098495 -0.69434337 -3.21400584 -1.02263822 0 0 Z " fill="#595959" transform="translate(281.75,56.875)"/>
<path d="M0 0 C4.89685082 0.8315407 7.15867127 3.90480514 10.3125 7.5625 C10.9725 7.2325 11.6325 6.9025 12.3125 6.5625 C11.9825 7.8825 11.6525 9.2025 11.3125 10.5625 C8.42015685 11.38888376 6.42507569 11.5625 3.3125 11.5625 C2.9825 12.5525 2.6525 13.5425 2.3125 14.5625 C-4.49221172 8.53894141 -4.49221172 8.53894141 -5.25 4.75 C-4.39893159 1.4402895 -3.30773454 0.69231653 0 0 Z " fill="#6A6A6A" transform="translate(157.6875,72.4375)"/>
<path d="M0 0 C1.32 0.33 2.64 0.66 4 1 C4 1.66 4 2.32 4 3 C0.54565686 5.00695291 -2.9141063 7.00436779 -6.375 9 C-7.35984375 9.57234375 -8.3446875 10.1446875 -9.359375 10.734375 C-10.77089844 11.54648438 -10.77089844 11.54648438 -12.2109375 12.375 C-13.08024902 12.87773438 -13.94956055 13.38046875 -14.84521484 13.8984375 C-17 15 -17 15 -19 15 C-19.1875 12.625 -19.1875 12.625 -19 10 C-18.01 9.34 -17.02 8.68 -16 8 C-15.34 8.33 -14.68 8.66 -14 9 C-13.67 8.01 -13.34 7.02 -13 6 C-12.67 6.66 -12.34 7.32 -12 8 C-11.01 8 -10.02 8 -9 8 C-9 7.34 -9 6.68 -9 6 C-8.01 6 -7.02 6 -6 6 C-6 5.34 -6 4.68 -6 4 C-4.35 4 -2.7 4 -1 4 C-0.67 2.68 -0.34 1.36 0 0 Z " fill="#7B30EA" transform="translate(100,113)"/>
<path d="M0 0 C0.61875 0.185625 1.2375 0.37125 1.875 0.5625 C4.04160178 1.23686176 4.04160178 1.23686176 6 0 C8.3329866 -0.04022391 10.66706666 -0.04320247 13 0 C9.04442693 4.37750086 2.70521187 8.73307222 -3.27734375 9.1640625 C-5.1875 8.875 -5.1875 8.875 -8 8 C-8 7.34 -8 6.68 -8 6 C-7.01 5.67 -6.02 5.34 -5 5 C-4.67 4.34 -4.34 3.68 -4 3 C-2.68 3 -1.36 3 0 3 C0 2.01 0 1.02 0 0 Z " fill="#721AF0" transform="translate(68,128)"/>
<path d="M0 0 C2.64 0 5.28 0 8 0 C7.42507812 0.43054688 6.85015625 0.86109375 6.2578125 1.3046875 C4.81257348 2.38986697 3.36963719 3.47812424 1.9296875 4.5703125 C0.91261719 5.33988281 0.91261719 5.33988281 -0.125 6.125 C-0.80820312 6.64320312 -1.49140625 7.16140625 -2.1953125 7.6953125 C-4 9 -4 9 -6 10 C-8 8 -8 8 -10 5 C-10.99 5.495 -10.99 5.495 -12 6 C-11.34 4.35 -10.68 2.7 -10 1 C-6.53058454 1.45822468 -3.32604951 1.89131683 0 3 C0 2.01 0 1.02 0 0 Z " fill="#6F15F5" transform="translate(37,29)"/>
<path d="M0 0 C2.375 0.6875 2.375 0.6875 3.375 1.6875 C3.5625 4.625 3.5625 4.625 3.375 7.6875 C1.375 9.6875 1.375 9.6875 -1.125 9.9375 C-3.625 9.6875 -3.625 9.6875 -5.625 7.6875 C-5.9375 4.6875 -5.9375 4.6875 -5.625 1.6875 C-2.625 -0.3125 -2.625 -0.3125 0 0 Z " fill="#676767" transform="translate(280.625,41.3125)"/>
<path d="M0 0 C4.73474097 1.6996506 8.96167111 4.13659027 13.3125 6.625 C14.05306641 7.04523437 14.79363281 7.46546875 15.55664062 7.8984375 C17.37269011 8.92948495 19.18656533 9.96436046 21 11 C21 11.33 21 11.66 21 12 C19.02 12 17.04 12 15 12 C15 11.34 15 10.68 15 10 C13.906875 10 12.81375 10 11.6875 10 C9.45833333 10 7.22916667 10 5 10 C5 9.34 5 8.68 5 8 C4.34 7.67 3.68 7.34 3 7 C3 6.34 3 5.68 3 5 C2.505 4.505 2.01 4.01 1.5 3.5 C1.005 3.005 0.51 2.51 0 2 C0 1.34 0 0.68 0 0 Z " fill="#650AF2" transform="translate(83,13)"/>
<path d="M0 0 C0.66 0 1.32 0 2 0 C2.33 2.31 2.66 4.62 3 7 C4.32 7.33 5.64 7.66 7 8 C7 11.96 7 15.92 7 20 C3.99382731 16.99382731 4.40414684 14.17618402 4 10 C2.02 10.66 0.04 11.32 -2 12 C-2.33 11.34 -2.66 10.68 -3 10 C-2 8 -2 8 1 7 C0.34 6.01 -0.32 5.02 -1 4 C-0.625 1.8125 -0.625 1.8125 0 0 Z " fill="#742AE9" transform="translate(20,58)"/>
<path d="M0 0 C0.99 0.33 1.98 0.66 3 1 C3 2.32 3 3.64 3 5 C5.31 5.66 7.62 6.32 10 7 C10 7.66 10 8.32 10 9 C10.99 9.33 11.98 9.66 13 10 C13 10.66 13 11.32 13 12 C8.60616294 10.40376856 4.71004193 8.21975667 0.6875 5.875 C0.04232422 5.50246094 -0.60285156 5.12992187 -1.26757812 4.74609375 C-2.84675945 3.83367787 -4.42361864 2.91724491 -6 2 C-5.38125 1.855625 -4.7625 1.71125 -4.125 1.5625 C-1.96741678 1.06847775 -1.96741678 1.06847775 0 0 Z " fill="#8A48EA" transform="translate(20,112)"/>
<path d="M0 0 C0.66 0 1.32 0 2 0 C3.63837638 10.16236162 3.63837638 10.16236162 1 14 C-1.375 14.625 -1.375 14.625 -4 15 C-6.26454073 16.46771271 -6.26454073 16.46771271 -8 18 C-8 16.35 -8 14.7 -8 13 C-4.91190305 11.23537317 -3.76687864 11 0 11 C0 7.37 0 3.74 0 0 Z " fill="#8849DF" transform="translate(71,64)"/>
<path d="M0 0 C0.66 0.33 1.32 0.66 2 1 C1.67 1.99 1.34 2.98 1 4 C0.01 4.33 -0.98 4.66 -2 5 C-2.90980011 6.80350958 -2.90980011 6.80350958 -3.5 8.9375 C-4.56175093 12.41979025 -4.76336466 12.8422431 -8 15 C-8.61334438 7.76253626 -8.61334438 7.76253626 -5.6875 4.125 C-3 2 -3 2 0 0 Z " fill="#721BEF" transform="translate(8,29)"/>
<path d="M0 0 C2 1.5625 2 1.5625 3 3 C1.35 3 -0.3 3 -2 3 C-2 2.34 -2 1.68 -2 1 C-3.98 1 -5.96 1 -8 1 C-8 1.66 -8 2.32 -8 3 C-7.34 3.33 -6.68 3.66 -6 4 C-6.99 4 -7.98 4 -9 4 C-9 4.66 -9 5.32 -9 6 C-11.50357861 5.1654738 -13.66785852 4.20628008 -16 3 C-10.25943066 -0.5573209 -6.63146155 -1.6859648 0 0 Z " fill="#8336EE" transform="translate(66,2)"/>
<path d="M0 0 C1.98 0 3.96 0 6 0 C6.0825 0.78375 6.165 1.5675 6.25 2.375 C6.4975 3.24125 6.745 4.1075 7 5 C8.32407669 5.68486725 9.65909241 6.34870203 11 7 C13.41735738 10.02169673 14.91155875 11.98292565 15.25 15.875 C15.1675 16.57625 15.085 17.2775 15 18 C12.60638026 15.05400648 10.30583066 12.06066819 8.0625 9 C5.59937213 5.6907595 3.00145303 2.82489697 0 0 Z " fill="#8F53E7" transform="translate(78,32)"/>
<path d="M0 0 C0.66 0.99 1.32 1.98 2 3 C2.48597656 3.72316406 2.97195312 4.44632812 3.47265625 5.19140625 C3.99730469 5.97386719 4.52195312 6.75632812 5.0625 7.5625 C5.58972656 8.34753906 6.11695313 9.13257812 6.66015625 9.94140625 C8 12 8 12 9 14 C5 14 5 14 3.4375 12.5 C2.963125 12.005 2.48875 11.51 2 11 C1.01 11 0.02 11 -1 11 C-0.67 7.37 -0.34 3.74 0 0 Z " fill="#8743E9" transform="translate(28,79)"/>
<path d="M0 0 C0.97918775 3.07556958 1.1498998 3.68592423 -0.3125 6.75 C-0.869375 7.4925 -1.42625 8.235 -2 9 C-2.66 9 -3.32 9 -4 9 C-4.061875 9.61875 -4.12375 10.2375 -4.1875 10.875 C-5 13 -5 13 -7.5625 14.25 C-8.366875 14.4975 -9.17125 14.745 -10 15 C-7.08785803 9.6237379 -3.75648099 4.82081727 0 0 Z " fill="#823CE5" transform="translate(99,88)"/>
<path d="M0 0 C0.66 0 1.32 0 2 0 C3.35439668 2.70879335 3.06501451 5.00933268 3 8 C4.65 8 6.3 8 8 8 C7.01 9.485 7.01 9.485 6 11 C2.34683329 9.75023244 1.21934164 9.32901247 -1 6 C-1.1875 3.375 -1.1875 3.375 -1 1 C-0.67 0.67 -0.34 0.34 0 0 Z " fill="#7B2BED" transform="translate(1,98)"/>
<path d="M0 0 C0 0.66 0 1.32 0 2 C-6.75 6 -6.75 6 -9 6 C-9.33 4.35 -9.66 2.7 -10 1 C-6.42181037 -1.33958553 -4.07775191 -0.9267618 0 0 Z " fill="#7E36E9" transform="translate(116,107)"/>
<path d="M0 0 C2.56269497 1.04109483 4.02610343 2.02610343 6 4 C5.38125 4.226875 4.7625 4.45375 4.125 4.6875 C1.38589791 6.37929835 0.94975528 7.99244161 0 11 C-0.99 10.67 -1.98 10.34 -3 10 C-2.649375 9.071875 -2.29875 8.14375 -1.9375 7.1875 C-0.67617372 4.0197047 -0.67617372 4.0197047 -2 1 C-1.34 0.67 -0.68 0.34 0 0 Z " fill="#6A6A6A" transform="translate(147,85)"/>
<path d="M0 0 C0.61875 0.78375 1.2375 1.5675 1.875 2.375 C3.89858661 4.96837647 3.89858661 4.96837647 6 7 C6.99 6.34 7.98 5.68 9 5 C8.67 6.65 8.34 8.3 8 10 C6.35 10.33 4.7 10.66 3 11 C2.67 8.69 2.34 6.38 2 4 C1.34 4 0.68 4 0 4 C0 2.68 0 1.36 0 0 Z " fill="#8845E7" transform="translate(74,105)"/>
<path d="M0 0 C0 1.65 0 3.3 0 5 C-1.1446875 4.9071875 -1.1446875 4.9071875 -2.3125 4.8125 C-5.04525312 4.74101915 -5.04525312 4.74101915 -6.8125 6.5 C-7.4003125 7.2425 -7.4003125 7.2425 -8 8 C-10 7 -10 7 -11 5 C-9.54462432 4.16151196 -8.08559627 3.32936066 -6.625 2.5 C-5.81289062 2.0359375 -5.00078125 1.571875 -4.1640625 1.09375 C-2 0 -2 0 0 0 Z " fill="#8745EA" transform="translate(21,23)"/>
<path d="M0 0 C1.32 0 2.64 0 4 0 C4 0.66 4 1.32 4 2 C3.34 2 2.68 2 2 2 C2.350625 3.2375 2.70125 4.475 3.0625 5.75 C3.95593273 8.903292 4.00881294 10.86774164 3 14 C-0.00559652 8.99067246 -0.29341888 5.67276511 0 0 Z " fill="#844ADE" transform="translate(41,63)"/>
<path d="M0 0 C0.66 0 1.32 0 2 0 C2.20413361 5.73842251 2.27141454 10.60539047 0 16 C-0.66 16 -1.32 16 -2 16 C-1.34 10.72 -0.68 5.44 0 0 Z " fill="#6D20E2" transform="translate(97,63)"/>
<path d="M0 0 C1.32 0 2.64 0 4 0 C3.731875 0.639375 3.46375 1.27875 3.1875 1.9375 C1.64635858 5.91202261 0.32390688 9.94884495 -1 14 C-1.33 14 -1.66 14 -2 14 C-2.21192221 8.80790596 -1.5912689 4.873261 0 0 Z " fill="#8440E5" transform="translate(24,42)"/>
<path d="M0 0 C0.763125 0.20625 1.52625 0.4125 2.3125 0.625 C2.6425 1.615 2.9725 2.605 3.3125 3.625 C2.19875 3.728125 1.085 3.83125 -0.0625 3.9375 C-1.25875 4.164375 -2.455 4.39125 -3.6875 4.625 C-4.3475 5.615 -5.0075 6.605 -5.6875 7.625 C-5.875 4.75 -5.875 4.75 -5.6875 1.625 C-2.6875 -0.375 -2.6875 -0.375 0 0 Z " fill="#7D7D7D" transform="translate(280.6875,41.375)"/>
<path d="M0 0 C5.61 0.33 11.22 0.66 17 1 C17 1.33 17 1.66 17 2 C15.58847656 2.09087891 15.58847656 2.09087891 14.1484375 2.18359375 C12.90320313 2.26738281 11.65796875 2.35117187 10.375 2.4375 C9.14523438 2.51871094 7.91546875 2.59992187 6.6484375 2.68359375 C3.38467612 2.96663944 0.22056141 3.41038953 -3 4 C-3.33 3.34 -3.66 2.68 -4 2 C-2.68 2 -1.36 2 0 2 C0 1.34 0 0.68 0 0 Z " fill="#995DE9" transform="translate(48,25)"/>
<path d="M0 0 C1.32 0.33 2.64 0.66 4 1 C4 1.66 4 2.32 4 3 C-0.95 5.475 -0.95 5.475 -6 8 C-6 6.68 -6 5.36 -6 4 C-4.35 4 -2.7 4 -1 4 C-0.67 2.68 -0.34 1.36 0 0 Z " fill="#8643E8" transform="translate(100,113)"/>
<path d="M0 0 C3.96 0.33 7.92 0.66 12 1 C11.67 1.99 11.34 2.98 11 4 C7.7 3.67 4.4 3.34 1 3 C0.67 2.01 0.34 1.02 0 0 Z " fill="#8344E6" transform="translate(51,81)"/>
<path d="M0 0 C6.0546875 -0.1953125 6.0546875 -0.1953125 8 0 C8.66 0.66 9.32 1.32 10 2 C9.67 2.99 9.34 3.98 9 5 C5.22454612 3.90931332 2.52956528 3.0916909 0 0 Z " fill="#7F3AE7" transform="translate(45,131)"/>
<path d="M0 0 C4.30764815 1.56641751 8.06171464 3.68336156 12 6 C11.01 6.66 10.02 7.32 9 8 C9 7.34 9 6.68 9 6 C8.01 6 7.02 6 6 6 C6 5.34 6 4.68 6 4 C4.35 4 2.7 4 1 4 C0.67 2.68 0.34 1.36 0 0 Z " fill="#945DE6" transform="translate(83,13)"/>
<path d="M0 0 C3.99500618 1.3697164 6.80009492 3.25722422 10 6 C7.13822943 7.43088528 5.06624227 6.59991697 2 6 C1.34 4.02 0.68 2.04 0 0 Z " fill="#8B4AE6" transform="translate(73,7)"/>
<path d="M0 0 C2.31 0.66 4.62 1.32 7 2 C7 2.66 7 3.32 7 4 C7.99 4.33 8.98 4.66 10 5 C10 5.66 10 6.32 10 7 C3.29090909 4.39090909 3.29090909 4.39090909 1 3 C0.67 2.01 0.34 1.02 0 0 Z " fill="#8440E4" transform="translate(23,117)"/>
<path d="M0 0 C2.64 0 5.28 0 8 0 C4.87567603 2.52349243 1.61939504 4.27256146 -2 6 C-1.34 4.02 -0.68 2.04 0 0 Z " fill="#8746E7" transform="translate(37,29)"/>
<path d="M0 0 C0.66 0.33 1.32 0.66 2 1 C0.25 4.875 0.25 4.875 -2 6 C-3.99960012 6.039992 -6.00047242 6.04346799 -8 6 C-5.63404067 3.38499232 -3.13950774 1.61000397 0 0 Z " fill="#8D4FE4" transform="translate(29,17)"/>
<path d="M0 0 C1.125 3.75 1.125 3.75 0 6 C-2.06640625 6.4140625 -2.06640625 6.4140625 -4.5625 6.625 C-5.38878906 6.69976562 -6.21507812 6.77453125 -7.06640625 6.8515625 C-8.02353516 6.92503906 -8.02353516 6.92503906 -9 7 C-8.01 6.34 -7.02 5.68 -6 5 C-3.96864317 3.36898357 -1.99068127 1.68101974 0 0 Z " fill="#8544E2" transform="translate(56,55)"/>
<path d="M0 0 C0.66 0 1.32 0 2 0 C2 1.65 2 3.3 2 5 C-0.90600261 6.25664978 -2.79604584 7 -6 7 C-5.67 6.01 -5.34 5.02 -5 4 C-3.68 4 -2.36 4 -1 4 C-0.67 2.68 -0.34 1.36 0 0 Z " fill="#6507EE" transform="translate(21,23)"/>
<path d="M0 0 C0.68707555 2.49064888 1 4.37886292 1 7 C2.43750191 8.68798827 2.43750191 8.68798827 4 10 C1.69 9.34 -0.62 8.68 -3 8 C-1.125 2.25 -1.125 2.25 0 0 Z " fill="#9D69E1" transform="translate(94,79)"/>
<path d="M0 0 C1.11375 0.3403125 1.11375 0.3403125 2.25 0.6875 C2.25 1.6775 2.25 2.6675 2.25 3.6875 C1.321875 3.5225 0.39375 3.3575 -0.5625 3.1875 C-3.70621353 2.61001612 -3.70621353 2.61001612 -6.75 2.6875 C-4.29511132 0.41445492 -3.41240272 -0.38777304 0 0 Z " fill="#535353" transform="translate(305.75,82.3125)"/>
<path d="M0 0 C7.50769231 0.61538462 7.50769231 0.61538462 10 2.5625 C10.33 3.036875 10.66 3.51125 11 4 C9.35 4 7.7 4 6 4 C6 3.34 6 2.68 6 2 C4.02 2 2.04 2 0 2 C0 1.34 0 0.68 0 0 Z " fill="#965DE3" transform="translate(58,1)"/>
<path d="M0 0 C2.97 0 5.94 0 9 0 C8.34 1.32 7.68 2.64 7 4 C4.97954558 3.39816251 2.97888961 2.72693904 1 2 C0.67 1.34 0.34 0.68 0 0 Z " fill="#8A47E8" transform="translate(33,124)"/>
<path d="M0 0 C0.598125 0.20625 1.19625 0.4125 1.8125 0.625 C1.4825 2.605 1.1525 4.585 0.8125 6.625 C-1.1675 4.975 -3.1475 3.325 -5.1875 1.625 C-2.1875 -0.375 -2.1875 -0.375 0 0 Z " fill="#737373" transform="translate(168.1875,51.375)"/>
<path d="M0 0 C3.59391114 1.33488128 6.75490696 2.96022723 10 5 C9.34 5.66 8.68 6.32 8 7 C8 6.34 8 5.68 8 5 C7.05125 4.9175 6.1025 4.835 5.125 4.75 C2 4 2 4 0.625 1.9375 C0.41875 1.298125 0.2125 0.65875 0 0 Z " fill="#9A66E8" transform="translate(104,25)"/>
<path d="M0 0 C0.66 0 1.32 0 2 0 C2.185625 1.7015625 2.185625 1.7015625 2.375 3.4375 C2.684375 5.2009375 2.684375 5.2009375 3 7 C3.66 7.33 4.32 7.66 5 8 C4.01 8.33 3.02 8.66 2 9 C-1.07692308 4.56923077 -1.07692308 4.56923077 -0.6875 1.6875 C-0.460625 1.130625 -0.23375 0.57375 0 0 Z " fill="#7C35EC" transform="translate(20,58)"/>
<path d="M0 0 C3.45925163 1.2491742 6.14693203 2.67527795 9 5 C7.02 5 5.04 5 3 5 C3 4.34 3 3.68 3 3 C2.01 2.67 1.02 2.34 0 2 C0 1.34 0 0.68 0 0 Z " fill="#9154E5" transform="translate(95,20)"/>
<path d="M0 0 C0.33 1.32 0.66 2.64 1 4 C0.34 4 -0.32 4 -1 4 C-1.33 5.32 -1.66 6.64 -2 8 C-2.99 7.34 -3.98 6.68 -5 6 C-3.35 4.02 -1.7 2.04 0 0 Z " fill="#8843E9" transform="translate(88,103)"/>
<path d="M0 0 C0.66 0 1.32 0 2 0 C4.5393228 3.41831915 5.3636198 5.75776898 5 10 C2.08772731 6.71195019 0.50298788 4.40114397 0 0 Z " fill="#813FE1" transform="translate(88,40)"/>
<path d="M0 0 C2.375 0.3125 2.375 0.3125 5 1 C5.66 1.99 6.32 2.98 7 4 C5.02 4 3.04 4 1 4 C0.67 2.68 0.34 1.36 0 0 Z " fill="#7F7F7F" transform="translate(316,81)"/>
<path d="M0 0 C-1.3050743 3.9152229 -1.47300241 3.64866827 -5 6 C-5.33 4.68 -5.66 3.36 -6 2 C-3 0 -3 0 0 0 Z " fill="#818181" transform="translate(294,41)"/>
<path d="M0 0 C0.66 0.33 1.32 0.66 2 1 C1.67 1.99 1.34 2.98 1 4 C-1.5625 5.1875 -1.5625 5.1875 -4 6 C-4.66 5.34 -5.32 4.68 -6 4 C-4.02 2.68 -2.04 1.36 0 0 Z " fill="#9257E8" transform="translate(8,29)"/>
<path d="M0 0 C2.64 0 5.28 0 8 0 C5.82575883 2.50037734 4.26954202 3.43628586 1 4 C0.67 2.68 0.34 1.36 0 0 Z " fill="#8E4EE5" transform="translate(73,128)"/>
</svg>
